<svg xmlns="http://www.w3.org/2000/svg" width="25" height="29" viewBox="0 0 25 29"><g><g><path fill="#fff" d="M9.443 5.5a.683.683 0 1 0-1.367 0 .683.683 0 0 0 1.367 0zm7.472 0a.683.683 0 0 0-1.367 0 .683.683 0 1 0 1.367 0zM3.639 11.166v7.499c0 .994-.8 1.796-1.81 1.796C.815 20.462 0 19.66 0 18.666v-7.499c0-.976.816-1.779 1.828-1.779.994 0 1.81.803 1.81 1.78zm17.003 10.167c0 1.064-.87 1.919-1.934 1.919h-1.331v3.958c0 .994-.817 1.797-1.829 1.797-1.011 0-1.828-.803-1.828-1.797v-3.958h-2.45v3.958c0 .994-.816 1.797-1.827 1.797-.994 0-1.81-.803-1.81-1.797l-.019-3.958H6.301c-1.083 0-1.952-.855-1.952-1.919V9.72h16.293zm.054-12.242H4.278c0-2.773 1.686-5.18 4.188-6.435L7.206.372a.251.251 0 0 1 .089-.348c.124-.053.284-.018.355.104L8.928 2.43a8.922 8.922 0 0 1 3.567-.732c1.278 0 2.485.261 3.568.732L17.341.128c.071-.122.23-.157.355-.104.124.07.16.226.089.348l-1.26 2.285c2.484 1.255 4.17 3.662 4.17 6.435zm4.295 9.574c0 .994-.817 1.796-1.828 1.796-.994 0-1.81-.802-1.81-1.796v-7.499c0-.994.816-1.779 1.81-1.779 1.011 0 1.828.785 1.828 1.78z"/></g></g></svg>