<svg xmlns="http://www.w3.org/2000/svg" width="21" height="24" viewBox="0 0 21 24"><g><g><path fill="#fff" d="M19.141 21.125c-1.296 1.889-2.592 2.826-3.873 2.826-.513 0-1.206-.158-2.11-.461-.89-.317-1.658-.462-2.276-.462-.603 0-1.327.16-2.14.476-.83.332-1.493.49-1.99.49-1.552 0-3.044-1.254-4.536-3.735C.754 17.78 0 15.37 0 13.005 0 10.798.573 9.01 1.703 7.61c1.13-1.385 2.547-2.077 4.28-2.077.739 0 1.613.144 2.668.433 1.04.288 1.733.432 2.08.432.437 0 1.16-.158 2.155-.49.995-.317 1.87-.49 2.608-.49 1.205 0 2.276.317 3.21.937.527.346 1.055.837 1.567 1.442-.783.635-1.356 1.197-1.718 1.702a4.976 4.976 0 0 0-.98 2.986 5.35 5.35 0 0 0 1.04 3.216c.694.952 1.493 1.558 2.382 1.817-.377 1.14-.98 2.35-1.854 3.606zm-4.25-18.562c-.302.721-.769 1.384-1.402 1.99-.542.52-1.085.866-1.628 1.039-.346.1-.859.187-1.567.245.03-1.428.422-2.668 1.176-3.707.753-1.038 2.02-1.745 3.767-2.134.03.13.06.23.076.317 0 .101.015.188.015.289 0 .59-.15 1.254-.437 1.961z"/></g></g></svg>